<svg xmlns="http://www.w3.org/2000/svg" viewBox="0 0 800 600" role="img" aria-label="">
  <defs>
    <linearGradient id="g" x1="0" y1="0" x2="1" y2="1">
      <stop offset="0" stop-color="#A85400"/><stop offset="1" stop-color="#3F2309"/>
    </linearGradient>
  </defs>
  <rect width="800" height="600" fill="url(#g)"/>
  <circle cx="672" cy="108" r="208" fill="#FF9933" opacity="0.16"/>
  <circle cx="47.0" cy="498.5" r="15.6" fill="#FF9933" opacity="0.57"/>
  <circle cx="352.2" cy="46.8" r="7.3" fill="#99CC00" opacity="0.62"/>
  <circle cx="235.7" cy="263.9" r="11.5" fill="#FFB226" opacity="0.52"/>
  <circle cx="665.0" cy="311.0" r="8.6" fill="#4FC3E8" opacity="0.69"/>
  <circle cx="510.2" cy="399.5" r="8.5" fill="#FFB226" opacity="0.65"/>
  <circle cx="169.4" cy="38.7" r="12.1" fill="#FF9933" opacity="0.67"/>
  <circle cx="251.8" cy="490.5" r="17.1" fill="#99CC00" opacity="0.36"/>
  <circle cx="593.1" cy="459.0" r="13.0" fill="#4FC3E8" opacity="0.65"/>
  <rect x="94.2" y="192.5" width="28.4" height="28.4" rx="5.0" fill="#4FC3E8" opacity="0.49" transform="rotate(-2 108.4 206.7)"/>
  <rect x="528.6" y="521.8" width="28.0" height="28.0" rx="4.9" fill="#99CC00" opacity="0.77" transform="rotate(-15 542.6 535.8)"/>
  <circle cx="495.0" cy="512.9" r="18.3" fill="#FFD11A" opacity="0.62"/>
  <circle cx="616.5" cy="373.3" r="17.6" fill="#99CC00" opacity="0.57"/>
  <rect x="160.8" y="166.9" width="32.4" height="32.4" rx="5.7" fill="#FF9933" opacity="0.36" transform="rotate(-4 177.0 183.1)"/>
  <g opacity="0.14" fill="#ffffff">
    <circle cx="656.0" cy="348.0" r="111.6"/>
    <line x1="783.2" y1="400.7" x2="819.2" y2="415.6" stroke="#ffffff" stroke-width="40.9" stroke-linecap="round"/>
    <line x1="708.7" y1="475.2" x2="723.6" y2="511.2" stroke="#ffffff" stroke-width="40.9" stroke-linecap="round"/>
    <line x1="603.3" y1="475.2" x2="588.4" y2="511.2" stroke="#ffffff" stroke-width="40.9" stroke-linecap="round"/>
    <line x1="528.8" y1="400.7" x2="492.8" y2="415.6" stroke="#ffffff" stroke-width="40.9" stroke-linecap="round"/>
    <line x1="528.8" y1="295.3" x2="492.8" y2="280.4" stroke="#ffffff" stroke-width="40.9" stroke-linecap="round"/>
    <line x1="603.3" y1="220.8" x2="588.4" y2="184.8" stroke="#ffffff" stroke-width="40.9" stroke-linecap="round"/>
    <line x1="708.7" y1="220.8" x2="723.6" y2="184.8" stroke="#ffffff" stroke-width="40.9" stroke-linecap="round"/>
    <line x1="783.2" y1="295.3" x2="819.2" y2="280.4" stroke="#ffffff" stroke-width="40.9" stroke-linecap="round"/>
  </g>
</svg>
