<svg xmlns="http://www.w3.org/2000/svg" viewBox="0 0 538 87" role="img" aria-label="BABYLAND">
  <defs><linearGradient id="bl-word" x1="0" y1="0" x2="0" y2="1"><stop offset="0" stop-color="#FF9933"/><stop offset=".46" stop-color="#FFC91A"/><stop offset=".58" stop-color="#FFC91A"/><stop offset="1" stop-color="#FF9930"/></linearGradient></defs>
  <path d="M1.6 83.9C0.9 83.8 0.4 83.4 0.1 82.8C-0.0 82.2 -0.0 1.8 0.1 1.2C0.3 0.7 0.7 0.3 1.2 0.1C1.6 0.0 2.1 0.0 14.1 0.0C28.1 0.0 26.8 -0.0 28.0 0.5C29.1 1.0 28.9 1.0 32.4 1.0C35.9 1.1 35.9 1.0 37.0 1.5C37.3 1.6 37.8 1.8 38.1 1.9C38.5 2.0 38.9 2.1 39.2 2.2C39.7 2.3 43.1 4.0 43.8 4.4C44.2 4.8 46.9 7.4 47.4 8.0C47.7 8.5 51.5 16.0 51.7 16.6C52.0 17.4 52.0 17.8 52.0 22.8C52.0 28.2 52.0 27.8 51.5 29.0C51.3 29.4 51.1 30.1 51.0 30.5C50.8 31.3 50.8 31.4 50.2 32.5C49.6 33.8 49.4 34.0 47.9 35.6C46.3 37.2 46.0 37.4 45.0 38.0C43.6 38.7 43.2 39.0 43.2 39.5C43.2 40.0 43.6 40.3 45.7 41.4C47.9 42.5 47.9 42.5 49.6 44.2C51.2 45.7 51.5 46.0 51.9 46.9C52.3 47.6 52.5 48.0 53.0 48.5C53.5 49.2 53.8 49.5 54.7 51.5C56.1 54.3 56.0 53.5 56.0 60.4C56.0 66.3 56.0 65.8 55.5 67.0C55.2 67.7 55.1 68.3 54.9 69.3C54.9 70.1 54.8 70.3 54.2 71.5C53.5 72.9 53.6 72.9 49.9 76.5C46.1 80.4 46.0 80.4 44.6 81.2C43.5 81.7 43.0 81.9 42.0 82.0C41.1 82.1 40.9 82.1 40.1 82.5C39.7 82.6 39.0 82.9 38.5 83.0C38.1 83.1 37.5 83.3 37.2 83.4C36.4 83.7 36.0 83.9 35.4 83.9C34.8 84.0 2.2 84.0 1.6 83.9ZM63.6 83.9C62.1 83.7 61.8 82.7 62.6 80.9C62.7 80.6 62.9 80.0 63.0 79.5C63.1 79.1 63.3 78.4 63.5 78.0C63.7 77.6 63.9 76.9 64.0 76.5C64.1 76.1 64.3 75.4 64.5 75.0C64.7 74.6 64.9 73.9 65.0 73.5C65.1 73.1 65.3 72.4 65.5 72.0C65.7 71.6 65.9 70.9 66.0 70.5C66.1 70.1 66.3 69.4 66.5 69.0C66.7 68.6 66.9 67.9 67.0 67.5C67.1 67.1 67.3 66.4 67.5 66.0C67.7 65.6 67.9 64.9 68.0 64.5C68.1 64.1 68.3 63.4 68.5 63.0C68.7 62.6 68.9 61.9 69.0 61.5C69.1 61.1 69.3 60.4 69.5 60.0C69.7 59.6 69.9 58.9 70.0 58.5C70.1 58.1 70.3 57.4 70.5 57.0C70.7 56.6 70.9 55.9 71.0 55.5C71.1 55.1 71.3 54.4 71.5 54.0C71.7 53.6 71.9 52.9 72.0 52.5C72.1 52.1 72.3 51.4 72.5 51.0C72.7 50.6 72.9 49.9 73.0 49.5C73.1 49.1 73.3 48.4 73.5 48.0C73.7 47.6 73.9 46.9 74.0 46.5C74.1 46.1 74.3 45.4 74.5 45.0C74.7 44.6 74.9 43.9 75.0 43.5C75.1 43.1 75.3 42.4 75.5 42.0C75.7 41.6 75.9 40.9 76.0 40.5C76.1 40.1 76.3 39.4 76.5 39.0C76.7 38.6 76.9 37.9 77.0 37.5C77.1 37.1 77.3 36.4 77.5 36.0C77.7 35.6 77.9 34.9 78.0 34.5C78.1 34.1 78.3 33.4 78.5 33.0C78.7 32.6 78.9 31.9 79.0 31.5C79.1 31.1 79.3 30.4 79.5 30.0C79.7 29.6 79.9 28.9 80.0 28.5C80.1 28.1 80.3 27.4 80.5 27.0C80.7 26.6 80.9 25.9 81.0 25.5C81.1 25.1 81.3 24.4 81.5 24.0C81.7 23.6 81.9 22.9 82.0 22.5C82.1 22.1 82.3 21.4 82.5 21.0C82.7 20.6 82.9 19.9 83.0 19.5C83.1 19.1 83.3 18.4 83.5 18.0C83.7 17.6 83.9 16.9 84.0 16.5C84.1 16.1 84.3 15.4 84.5 15.0C84.7 14.6 84.9 13.9 85.0 13.5C85.1 13.1 85.3 12.4 85.5 12.0C85.7 11.6 85.9 10.9 86.0 10.5C86.1 10.1 86.3 9.4 86.5 9.0C86.7 8.6 86.9 7.9 87.0 7.5C87.1 7.1 87.3 6.4 87.5 6.0C87.7 5.6 87.9 4.9 88.0 4.5C88.1 4.1 88.3 3.4 88.5 3.0C88.7 2.6 88.9 2.0 89.0 1.7C89.3 0.7 89.6 0.4 90.2 0.1C90.8 -0.0 98.3 -0.0 98.9 0.1C100.0 0.4 100.5 1.0 101.3 2.6C101.8 3.6 101.8 3.7 102.0 4.5C102.1 4.9 102.3 5.6 102.5 6.0C102.7 6.4 102.9 7.1 103.0 7.5C103.1 7.9 103.3 8.6 103.5 9.0C103.7 9.4 103.9 10.1 104.0 10.5C104.1 10.9 104.3 11.6 104.5 12.0C104.7 12.4 104.9 13.1 105.0 13.5C105.2 14.4 105.2 14.5 106.1 16.2C106.8 17.6 106.8 17.6 107.0 18.5C107.1 18.9 107.3 19.6 107.5 20.0C107.7 20.4 107.9 21.1 108.0 21.5C108.1 21.9 108.3 22.6 108.5 23.0C108.7 23.4 108.9 24.1 109.0 24.5C109.1 24.9 109.3 25.6 109.5 26.0C109.7 26.4 109.9 27.1 110.0 27.5C110.2 28.4 110.2 28.5 111.1 30.2C111.8 31.6 111.8 31.6 112.0 32.5C112.1 32.9 112.3 33.6 112.5 34.0C112.7 34.4 112.9 35.1 113.0 35.5C113.1 35.9 113.3 36.6 113.5 37.0C113.7 37.4 113.9 38.1 114.0 38.5C114.1 38.9 114.3 39.6 114.5 40.0C114.7 40.4 114.9 41.1 115.0 41.5C115.2 42.4 115.2 42.5 116.1 44.2C116.8 45.6 116.8 45.6 117.0 46.5C117.1 46.9 117.3 47.6 117.5 48.0C117.7 48.4 117.9 49.1 118.0 49.5C118.1 49.9 118.3 50.6 118.5 51.0C118.7 51.4 118.9 52.1 119.0 52.5C119.1 52.9 119.3 53.6 119.5 54.0C119.7 54.4 119.9 55.1 120.0 55.5C120.2 56.4 120.2 56.5 121.1 58.2C121.8 59.6 121.8 59.6 122.0 60.5C122.1 60.9 122.3 61.6 122.5 62.0C122.7 62.4 122.9 63.1 123.0 63.5C123.1 63.9 123.3 64.6 123.5 65.0C123.7 65.4 123.9 66.1 124.0 66.5C124.1 66.9 124.3 67.6 124.5 68.0C124.7 68.4 124.9 69.1 125.0 69.5C125.2 70.4 125.2 70.5 126.1 72.2C126.8 73.6 126.8 73.6 127.0 74.5C127.1 74.9 127.3 75.6 127.5 76.0C127.7 76.4 127.9 77.1 128.0 77.5C128.1 77.9 128.3 78.6 128.5 79.0C128.7 79.4 128.9 80.0 128.9 80.3C129.0 80.6 129.2 81.3 129.3 81.7C129.7 82.6 129.7 82.9 129.5 83.2C129.1 83.9 128.8 84.0 124.4 84.0C120.2 84.0 119.9 84.0 119.3 83.3C118.8 82.8 118.2 81.5 118.0 80.5C117.9 80.1 117.7 79.4 117.5 79.0C117.3 78.6 117.1 77.9 117.0 77.5C116.9 77.1 116.7 76.4 116.5 76.0C116.3 75.6 116.1 74.9 116.0 74.5C115.9 74.1 115.7 73.4 115.5 73.0C115.3 72.6 115.1 71.9 115.0 71.5C114.8 70.6 114.8 70.5 113.9 68.8C113.2 67.4 113.2 67.4 113.0 66.5C112.9 66.1 112.7 65.4 112.5 65.0C112.3 64.6 112.1 63.9 112.0 63.4C111.8 62.7 111.7 62.4 111.2 61.5C110.5 59.9 110.0 59.5 109.1 59.2C108.5 59.0 81.8 58.9 81.2 59.1C80.5 59.4 80.2 59.7 80.0 60.7C79.9 61.0 79.7 61.6 79.5 62.0C79.3 62.4 79.1 63.0 79.0 63.5C78.9 63.9 78.7 64.6 78.5 65.0C78.3 65.4 78.1 66.1 78.0 66.5C77.9 66.9 77.7 67.6 77.5 68.0C77.3 68.4 77.1 69.1 77.0 69.5C76.9 69.9 76.7 70.6 76.5 71.0C76.3 71.4 76.1 72.1 76.0 72.5C75.9 72.9 75.7 73.6 75.5 74.0C75.3 74.4 75.1 75.1 75.0 75.5C74.9 75.9 74.7 76.6 74.5 76.9C74.1 77.8 74.1 78.1 74.0 78.9C73.9 79.9 73.9 80.1 73.5 81.0C73.3 81.4 73.1 82.0 73.0 82.3C72.8 83.2 72.4 83.6 71.8 83.9C71.4 84.0 64.5 84.0 63.6 83.9ZM138.6 83.9C137.9 83.8 137.4 83.4 137.1 82.8C137.0 82.2 137.0 1.8 137.1 1.2C137.3 0.7 137.7 0.3 138.2 0.1C138.6 0.0 139.1 0.0 151.1 0.0C165.1 0.0 163.8 -0.0 165.0 0.5C166.1 1.0 165.9 1.0 169.4 1.0C173.1 1.1 172.9 1.0 174.3 1.7C176.0 2.5 181.3 5.2 181.8 5.4C182.2 5.8 183.9 7.4 184.4 8.0C184.7 8.5 188.5 16.0 188.7 16.6C189.0 17.4 189.0 17.8 189.0 22.8C189.0 28.2 189.0 27.8 188.5 29.0C188.3 29.4 188.1 30.1 188.0 30.5C187.8 31.3 187.8 31.4 187.2 32.5C186.6 33.7 186.4 34.0 185.4 35.1C184.3 36.2 184.0 36.4 183.0 37.0C181.5 37.9 180.2 38.9 180.2 39.5C180.2 40.0 180.6 40.3 182.7 41.4C184.9 42.5 184.9 42.5 186.6 44.2C188.2 45.7 188.5 46.0 188.9 46.9C189.3 47.6 189.5 48.0 190.0 48.5C190.5 49.2 190.8 49.5 191.7 51.5C193.1 54.3 193.0 53.5 193.0 60.4C193.0 66.3 193.0 65.8 192.5 67.0C192.2 67.7 192.1 68.3 191.9 69.3C191.9 70.1 191.8 70.3 191.2 71.5C190.5 72.9 190.6 72.9 186.9 76.5C183.1 80.4 183.0 80.4 181.6 81.2C180.5 81.7 180.0 81.9 179.0 82.0C178.1 82.1 177.9 82.1 177.1 82.5C176.7 82.6 176.0 82.9 175.5 83.0C175.1 83.1 174.5 83.3 174.2 83.4C173.4 83.7 173.0 83.9 172.4 83.9C171.8 84.0 139.2 84.0 138.6 83.9ZM228.6 83.9C227.9 83.8 227.4 83.4 227.1 82.8C227.0 82.5 227.0 81.6 227.0 65.3C227.0 48.2 227.0 48.2 226.8 47.8C226.7 47.3 224.8 43.6 224.5 43.2C224.4 43.0 224.2 42.7 224.0 42.5C223.5 41.9 223.2 41.5 222.5 39.9C221.7 38.4 221.5 38.1 221.0 37.5C220.5 36.8 220.2 36.5 219.0 33.9C217.7 31.4 217.6 31.2 217.0 30.5C216.5 29.9 216.2 29.5 215.5 27.9C214.7 26.4 214.5 26.1 214.0 25.5C213.5 24.8 213.2 24.5 212.0 21.9C210.7 19.4 210.6 19.2 210.0 18.5C209.5 17.9 209.2 17.5 208.5 15.9C207.7 14.4 207.5 14.1 207.0 13.5C206.5 12.8 206.2 12.5 205.0 9.9C203.7 7.4 203.6 7.2 203.0 6.5C202.5 5.9 202.2 5.5 201.4 3.9C201.0 3.0 200.6 2.2 200.5 2.0C199.6 0.7 199.9 0.2 201.4 0.1C202.2 -0.0 207.8 -0.0 208.4 0.1C210.1 0.3 211.1 1.2 212.5 4.0C213.3 5.6 213.5 5.9 214.0 6.5C214.5 7.2 214.8 7.5 216.0 10.1C217.3 12.6 217.5 12.9 218.1 13.7C218.4 14.0 218.7 14.5 218.9 14.8C219.4 15.7 219.5 16.0 220.0 16.5C220.5 17.1 220.7 17.5 221.5 19.1C222.3 20.6 222.5 20.9 223.0 21.5C223.5 22.1 223.8 22.5 224.5 24.1C225.3 25.6 225.5 25.9 226.0 26.5C226.6 27.2 226.8 27.5 228.1 30.2C229.7 33.5 229.8 33.6 230.0 34.6C230.2 35.3 230.3 35.5 231.0 36.9C232.0 38.9 232.3 39.3 233.1 39.0C233.6 38.8 233.6 38.7 237.0 32.0C240.2 25.5 240.4 25.2 241.0 24.5C241.5 23.9 241.7 23.6 242.5 22.1C243.2 20.5 243.5 20.1 244.0 19.5C244.5 18.9 244.7 18.6 245.5 17.1C246.2 15.5 246.5 15.1 247.0 14.5C247.5 13.9 247.7 13.6 248.5 12.1C249.2 10.5 249.5 10.1 250.0 9.5C250.5 8.9 250.7 8.6 251.5 7.1C252.2 5.5 252.5 5.1 253.0 4.5C253.5 3.9 253.7 3.7 254.3 2.5C255.3 0.5 255.6 0.2 256.7 0.1C257.3 -0.0 263.6 -0.0 264.2 0.1C265.4 0.2 265.9 0.8 265.5 1.8C265.3 2.5 264.6 3.8 264.2 4.3C263.5 5.1 263.3 5.4 262.5 6.9C261.7 8.5 261.5 8.9 261.0 9.5C260.5 10.0 260.4 10.3 259.9 11.2C259.7 11.5 259.4 12.0 259.1 12.3C258.5 13.1 258.3 13.4 257.5 14.9C256.7 16.5 256.5 16.9 256.0 17.5C255.5 18.0 255.4 18.3 254.9 19.2C254.7 19.5 254.4 20.0 254.1 20.3C253.5 21.1 253.3 21.4 252.5 22.9C251.8 24.5 251.5 24.9 251.0 25.5C250.4 26.2 250.3 26.4 249.0 28.9C247.8 31.5 247.5 31.8 247.0 32.5C246.5 33.1 246.3 33.4 245.5 34.9C244.8 36.5 244.5 36.9 244.0 37.5C243.5 38.1 243.3 38.4 242.5 39.9C241.8 41.5 241.5 41.9 241.0 42.5C240.5 43.1 240.3 43.4 239.6 44.8C238.8 46.4 238.6 46.8 238.1 47.4C237.5 48.1 237.3 48.3 237.2 48.8C237.0 49.2 237.0 49.2 237.0 65.8C237.0 84.7 237.0 82.9 236.4 83.4C235.9 84.0 236.0 84.0 232.2 84.0C230.5 84.0 228.9 84.0 228.6 83.9ZM275.6 83.9C274.9 83.8 274.4 83.4 274.1 82.8C274.0 82.2 274.0 1.8 274.1 1.2C274.3 0.7 274.7 0.3 275.2 0.1C275.8 -0.0 282.2 -0.0 282.8 0.1C283.3 0.3 283.7 0.7 283.9 1.2C284.0 1.5 284.0 2.6 284.0 37.1C284.0 71.8 284.0 72.6 284.2 72.9C284.3 73.3 284.7 73.7 285.1 73.8C285.5 74.0 285.7 74.0 302.0 74.0C320.7 74.0 318.9 74.0 319.4 74.6C320.0 75.1 320.0 75.1 320.0 79.0C320.0 82.9 320.0 82.9 319.4 83.4C318.9 84.0 321.3 84.0 297.2 84.0C285.6 84.0 275.9 84.0 275.6 83.9ZM326.6 83.9C325.1 83.7 324.8 82.7 325.6 80.9C325.7 80.6 325.9 80.0 326.0 79.5C326.1 79.1 326.3 78.4 326.5 78.0C326.7 77.6 326.9 76.9 327.0 76.5C327.1 76.1 327.3 75.4 327.5 75.0C327.7 74.6 327.9 73.9 328.0 73.5C328.1 73.1 328.3 72.4 328.5 72.0C328.7 71.6 328.9 70.9 329.0 70.5C329.1 70.1 329.3 69.4 329.5 69.0C329.7 68.6 329.9 67.9 330.0 67.5C330.1 67.1 330.3 66.4 330.5 66.0C330.7 65.6 330.9 64.9 331.0 64.5C331.1 64.1 331.3 63.4 331.5 63.0C331.7 62.6 331.9 61.9 332.0 61.5C332.1 61.1 332.3 60.4 332.5 60.0C332.7 59.6 332.9 58.9 333.0 58.5C333.1 58.1 333.3 57.4 333.5 57.0C333.7 56.6 333.9 55.9 334.0 55.5C334.1 55.1 334.3 54.4 334.5 54.0C334.7 53.6 334.9 52.9 335.0 52.5C335.1 52.1 335.3 51.4 335.5 51.0C335.7 50.6 335.9 49.9 336.0 49.5C336.1 49.1 336.3 48.4 336.5 48.0C336.7 47.6 336.9 46.9 337.0 46.5C337.1 46.1 337.3 45.4 337.5 45.0C337.7 44.6 337.9 43.9 338.0 43.5C338.1 43.1 338.3 42.4 338.5 42.0C338.7 41.6 338.9 40.9 339.0 40.5C339.1 40.1 339.3 39.4 339.5 39.0C339.7 38.6 339.9 37.9 340.0 37.5C340.1 37.1 340.3 36.4 340.5 36.0C340.7 35.6 340.9 34.9 341.0 34.5C341.1 34.1 341.3 33.4 341.5 33.0C341.7 32.6 341.9 31.9 342.0 31.5C342.1 31.1 342.3 30.4 342.5 30.0C342.7 29.6 342.9 28.9 343.0 28.5C343.1 28.1 343.3 27.4 343.5 27.0C343.7 26.6 343.9 25.9 344.0 25.5C344.1 25.1 344.3 24.4 344.5 24.0C344.7 23.6 344.9 22.9 345.0 22.5C345.1 22.1 345.3 21.4 345.5 21.0C345.7 20.6 345.9 19.9 346.0 19.5C346.1 19.1 346.3 18.4 346.5 18.0C346.7 17.6 346.9 16.9 347.0 16.5C347.1 16.1 347.3 15.4 347.5 15.0C347.7 14.6 347.9 13.9 348.0 13.5C348.1 13.1 348.3 12.4 348.5 12.0C348.7 11.6 348.9 10.9 349.0 10.5C349.1 10.1 349.3 9.4 349.5 9.0C349.7 8.6 349.9 7.9 350.0 7.5C350.1 7.1 350.3 6.4 350.5 6.0C350.7 5.6 350.9 4.9 351.0 4.5C351.1 4.1 351.3 3.4 351.5 3.0C351.7 2.6 351.9 2.0 352.0 1.7C352.3 0.7 352.6 0.4 353.2 0.1C353.8 -0.0 361.3 -0.0 361.9 0.1C363.0 0.4 363.5 1.0 364.3 2.6C364.8 3.6 364.8 3.7 365.0 4.5C365.1 4.9 365.3 5.6 365.5 6.0C365.7 6.4 365.9 7.1 366.0 7.5C366.1 7.9 366.3 8.6 366.5 9.0C366.7 9.4 366.9 10.1 367.0 10.5C367.1 10.9 367.3 11.6 367.5 12.0C367.7 12.4 367.9 13.1 368.0 13.5C368.1 13.9 368.3 14.6 368.5 15.0C368.7 15.4 368.9 16.1 369.0 16.5C369.1 16.9 369.3 17.6 369.5 18.0C369.7 18.4 369.9 19.1 370.0 19.5C370.2 20.4 370.2 20.5 371.1 22.2C371.8 23.6 371.8 23.6 372.0 24.5C372.1 24.9 372.3 25.6 372.5 26.0C372.7 26.4 372.9 27.1 373.0 27.5C373.1 27.9 373.3 28.6 373.5 29.0C373.7 29.4 373.9 30.1 374.0 30.5C374.1 30.9 374.3 31.6 374.5 32.0C374.7 32.4 374.9 33.1 375.0 33.5C375.1 33.9 375.3 34.6 375.5 35.0C375.7 35.4 375.9 36.1 376.0 36.5C376.1 36.9 376.3 37.6 376.5 38.0C376.7 38.4 376.9 39.1 377.0 39.5C377.1 39.9 377.3 40.6 377.5 41.0C377.7 41.4 377.9 42.1 378.0 42.5C378.2 43.4 378.2 43.5 379.1 45.2C379.8 46.6 379.8 46.6 380.0 47.5C380.1 47.9 380.3 48.6 380.5 49.0C380.7 49.4 380.9 50.1 381.0 50.5C381.2 51.4 381.2 51.5 382.1 53.2C382.8 54.6 382.8 54.6 383.0 55.5C383.1 55.9 383.3 56.6 383.5 57.0C383.7 57.4 383.9 58.1 384.0 58.5C384.1 58.9 384.3 59.6 384.5 60.0C384.7 60.4 384.9 61.1 385.0 61.5C385.2 62.4 385.2 62.5 386.1 64.2C386.8 65.6 386.8 65.6 387.0 66.5C387.1 66.9 387.3 67.6 387.5 68.0C387.7 68.4 387.9 69.1 388.0 69.5C388.1 69.9 388.3 70.6 388.5 71.0C388.7 71.4 388.9 72.1 389.0 72.5C389.2 73.4 389.2 73.5 390.1 75.2C390.8 76.6 390.8 76.6 391.0 77.5C391.1 77.9 391.3 78.6 391.5 79.0C391.7 79.4 391.9 80.0 391.9 80.3C392.0 80.6 392.2 81.3 392.3 81.7C392.7 82.6 392.7 82.9 392.5 83.2C392.1 83.9 391.8 84.0 387.4 84.0C383.2 84.0 382.9 84.0 382.3 83.3C381.8 82.8 381.2 81.5 381.0 80.5C380.9 80.1 380.7 79.4 380.5 79.0C380.3 78.6 380.1 77.9 380.0 77.5C379.9 77.1 379.7 76.4 379.5 76.0C379.3 75.6 379.1 74.9 379.0 74.5C378.9 74.1 378.7 73.4 378.5 73.0C378.3 72.6 378.1 71.9 378.0 71.5C377.8 70.6 377.8 70.5 376.9 68.8C376.2 67.4 376.2 67.4 376.0 66.5C375.9 66.1 375.7 65.4 375.5 65.0C375.3 64.6 375.1 63.9 375.0 63.4C374.8 62.7 374.7 62.4 374.2 61.5C373.5 59.9 373.0 59.5 372.1 59.2C371.4 59.0 343.8 58.9 343.2 59.2C342.4 59.4 342.1 59.9 342.0 61.0C341.9 61.9 341.8 62.2 341.5 63.0C341.3 63.4 341.1 64.1 341.0 64.5C340.9 64.9 340.7 65.6 340.5 65.9C340.1 66.8 340.1 67.1 340.0 67.9C339.9 68.9 339.9 69.1 339.5 70.0C339.3 70.4 339.1 71.1 339.0 71.5C338.9 71.9 338.7 72.6 338.5 73.0C338.3 73.4 338.1 74.1 338.0 74.5C337.9 74.9 337.7 75.6 337.5 76.0C337.3 76.4 337.1 77.1 337.0 77.5C336.9 77.9 336.7 78.6 336.5 79.0C336.3 79.4 336.1 80.1 336.0 80.5C335.8 81.1 335.7 81.5 335.4 82.1C334.8 83.4 334.3 83.8 333.3 83.9C332.8 84.0 327.2 84.0 326.6 83.9ZM401.6 83.9C400.8 83.8 400.4 83.4 400.1 82.8C400.0 82.2 400.0 1.8 400.1 1.2C400.3 0.7 400.7 0.3 401.2 0.2C401.6 0.0 407.3 -0.1 408.4 0.1C410.1 0.3 411.1 1.2 412.5 4.0C413.3 5.6 413.5 5.9 414.0 6.5C414.5 7.1 414.8 7.5 415.5 9.1C416.3 10.6 416.5 10.9 417.0 11.5C417.5 12.1 417.8 12.5 418.5 14.1C419.3 15.6 419.5 15.9 420.0 16.5C420.5 17.2 420.8 17.5 422.0 20.1C423.3 22.6 423.4 22.8 424.0 23.5C424.5 24.1 424.8 24.5 425.5 26.1C426.3 27.6 426.5 27.9 427.0 28.5C427.5 29.1 427.8 29.5 428.5 31.1C429.3 32.6 429.5 32.9 430.0 33.5C430.5 34.1 430.8 34.5 431.5 36.1C432.3 37.6 432.5 37.9 433.0 38.5C433.5 39.2 433.8 39.5 435.0 42.1C436.3 44.6 436.4 44.8 437.0 45.5C437.5 46.1 437.8 46.5 438.5 48.1C439.3 49.6 439.5 49.9 440.0 50.5C440.5 51.1 440.8 51.5 441.5 53.1C442.3 54.6 442.5 54.9 443.0 55.5C443.5 56.1 443.8 56.5 444.5 58.1C445.3 59.6 445.5 59.9 446.2 60.8C446.4 61.0 446.8 61.6 447.0 62.0C448.0 63.7 448.6 63.9 448.9 62.5C449.0 62.1 449.0 59.1 449.0 31.8C449.0 2.5 449.0 1.5 449.1 1.2C449.3 0.7 449.7 0.3 450.2 0.1C450.8 -0.0 456.2 -0.0 456.8 0.1C457.3 0.3 457.7 0.7 457.9 1.2C458.0 1.8 458.0 82.2 457.9 82.8C457.7 83.3 457.3 83.7 456.8 83.9C456.2 84.0 449.7 84.0 449.1 83.9C448.0 83.6 447.6 83.1 446.5 81.0C445.7 79.4 445.5 79.1 445.0 78.5C444.5 77.8 444.2 77.5 443.0 74.9C441.7 72.4 441.6 72.2 441.0 71.5C440.5 70.8 440.2 70.5 439.0 67.9C437.7 65.4 437.6 65.2 437.0 64.5C436.5 63.8 436.2 63.5 435.0 60.9C433.7 58.4 433.6 58.2 433.0 57.5C432.5 56.9 432.2 56.5 431.5 54.9C430.7 53.4 430.5 53.1 430.0 52.5C429.5 51.8 429.2 51.5 428.0 48.9C426.7 46.4 426.6 46.2 426.0 45.5C425.5 44.8 425.2 44.5 424.0 41.9C422.7 39.4 422.6 39.2 422.0 38.5C421.5 37.8 421.2 37.5 420.0 34.9C418.7 32.4 418.6 32.2 418.0 31.5C417.5 30.8 417.2 30.5 416.0 27.9C414.7 25.4 414.6 25.2 414.0 24.5C413.5 23.9 413.2 23.4 412.5 22.1C411.9 20.8 411.6 20.4 411.3 20.1C410.9 19.9 410.5 20.0 410.3 20.4C410.0 20.9 410.0 19.8 410.0 51.8C410.0 81.5 410.0 82.5 409.9 82.8C409.7 83.3 409.3 83.7 408.8 83.8C408.4 84.0 402.5 84.0 401.6 83.9ZM476.6 83.9C475.9 83.8 475.4 83.4 475.1 82.8C475.0 82.2 475.0 1.8 475.1 1.2C475.3 0.7 475.7 0.3 476.2 0.1C476.6 0.0 477.1 0.0 487.6 0.0C499.9 0.0 498.8 -0.0 500.0 0.5C501.1 1.0 500.7 1.0 506.4 1.0C512.4 1.0 511.8 1.0 513.3 1.7C515.0 2.5 522.3 6.2 522.8 6.4C523.2 6.7 526.9 10.4 527.3 11.0C527.5 11.2 527.8 11.6 527.9 11.9C528.3 12.7 528.5 13.0 529.0 13.5C529.6 14.2 529.8 14.6 530.0 15.5C530.1 16.0 530.3 16.6 530.5 17.0C530.7 17.4 530.9 18.1 531.0 18.5C531.1 18.9 531.3 19.6 531.5 20.0C531.7 20.4 531.9 21.1 532.0 21.5C532.1 21.9 532.3 22.6 532.5 23.0C532.9 23.9 532.9 24.1 533.0 25.1C533.1 25.9 533.1 26.2 533.5 27.1C533.9 27.9 533.9 28.1 534.0 29.1C534.1 29.9 534.1 30.2 534.5 31.1C535.0 32.2 535.0 31.3 535.0 42.5C535.0 53.7 535.0 52.8 534.5 53.9C534.1 54.8 534.1 55.1 534.0 55.9C533.9 56.9 533.9 57.1 533.5 57.9C533.1 58.8 533.1 59.1 533.0 59.9C532.9 60.9 532.9 61.1 532.5 62.0C532.3 62.4 532.1 63.1 532.0 63.5C531.9 63.9 531.7 64.5 531.6 64.7C531.2 65.6 527.8 72.4 527.6 72.8C527.3 73.2 521.9 78.6 521.1 79.3C520.6 79.7 518.8 80.6 518.2 80.8C517.9 80.9 517.5 81.0 517.1 81.1C516.8 81.2 516.3 81.4 516.0 81.5C515.6 81.6 515.0 81.9 514.5 82.0C514.1 82.1 513.5 82.3 513.2 82.4C512.4 82.8 511.8 82.9 511.0 83.0C510.1 83.1 509.7 83.2 509.0 83.5C507.8 84.0 509.4 84.0 492.3 84.0C483.9 84.0 476.9 84.0 476.6 83.9ZM36.1 73.9C36.6 73.7 40.4 71.8 40.9 71.4C41.5 71.1 43.0 69.5 43.4 69.0C43.8 68.5 45.6 64.9 45.8 64.2C46.0 63.8 46.0 63.8 46.0 60.2C46.0 56.2 46.0 56.2 45.5 55.0C45.4 54.6 45.1 54.0 45.0 53.6C44.7 52.3 44.3 51.7 42.9 50.4C41.9 49.5 41.8 49.4 39.7 48.4C37.6 47.3 37.5 47.2 36.4 47.0C36.0 46.8 35.3 46.6 34.9 46.5C33.9 46.0 34.0 46.1 31.1 46.0C28.1 45.9 28.1 45.9 27.0 45.5C25.8 45.0 26.5 45.0 18.6 45.0C10.6 45.0 11.1 45.0 10.5 45.5C10.0 46.1 10.0 44.8 10.0 59.5C10.0 71.8 10.0 72.5 10.1 72.8C10.4 73.4 10.7 73.8 11.4 73.9C12.1 74.1 35.6 74.0 36.1 73.9ZM173.1 73.9C173.6 73.7 177.4 71.8 177.9 71.4C178.5 71.1 180.0 69.5 180.4 69.0C180.8 68.5 182.6 64.9 182.8 64.2C183.0 63.8 183.0 63.8 183.0 60.2C183.0 56.2 183.0 56.2 182.5 55.0C182.4 54.6 182.1 54.0 182.0 53.6C181.7 52.3 181.3 51.7 179.9 50.4C178.9 49.5 178.8 49.4 176.7 48.4C174.6 47.3 174.5 47.2 173.4 47.0C173.0 46.8 172.3 46.6 171.9 46.5C170.9 46.0 171.0 46.1 168.1 46.0C165.1 45.9 165.1 45.9 164.0 45.5C162.8 45.0 163.5 45.0 155.6 45.0C147.6 45.0 148.1 45.0 147.5 45.5C147.0 46.1 147.0 44.8 147.0 59.5C147.0 71.8 147.0 72.5 147.1 72.8C147.4 73.4 147.7 73.8 148.4 73.9C149.1 74.1 172.6 74.0 173.1 73.9ZM508.1 73.9C508.3 73.8 509.1 73.4 510.0 73.0C510.9 72.6 511.7 72.2 512.0 72.1C513.3 71.8 513.6 71.7 514.5 71.2C515.9 70.6 516.1 70.4 517.8 68.8C519.3 67.2 519.5 66.9 520.1 65.8C520.3 65.5 520.7 64.9 521.0 64.5C521.6 63.7 521.8 63.5 522.0 62.4C522.1 62.0 522.4 61.3 522.5 61.0C522.7 60.6 522.9 59.9 523.0 59.5C523.1 59.1 523.3 58.4 523.5 58.1C523.9 57.2 523.9 56.9 524.0 56.1C524.1 55.1 524.1 54.9 524.5 54.0C525.0 52.8 525.0 53.7 525.0 42.0C525.0 30.3 525.0 31.2 524.5 30.0C524.3 29.6 524.1 28.9 524.0 28.5C523.9 28.1 523.7 27.4 523.5 27.0C523.3 26.6 523.1 25.9 523.0 25.4C522.8 24.6 522.7 24.5 521.8 22.5C520.7 20.4 520.5 20.1 519.9 19.3C519.6 19.0 519.3 18.5 519.1 18.2C518.6 17.2 518.3 16.8 517.2 15.7C515.2 13.6 514.8 13.3 513.4 13.0C513.0 12.8 512.4 12.6 512.0 12.5C511.4 12.2 511.1 12.1 510.2 11.9C509.9 11.8 509.3 11.6 508.9 11.5C507.9 11.0 508.0 11.1 504.6 11.0C501.1 10.9 501.1 11.0 500.0 10.5C498.8 10.0 499.4 10.0 492.1 10.0C485.7 10.0 485.5 10.0 485.2 10.2C484.7 10.3 484.3 10.7 484.1 11.1C484.0 11.6 484.0 72.3 484.1 72.8C484.4 73.4 484.7 73.8 485.4 73.9C486.1 74.1 507.6 74.0 508.1 73.9ZM105.9 49.9C106.5 49.6 106.9 49.1 106.9 48.4C106.9 47.9 106.8 47.8 106.5 46.9C106.3 46.6 106.1 45.9 106.0 45.5C105.9 45.1 105.7 44.4 105.5 44.0C105.1 43.1 105.1 42.9 105.0 41.9C104.9 41.1 104.9 40.8 104.5 39.9C104.3 39.6 104.1 38.9 104.0 38.5C103.9 38.1 103.7 37.4 103.5 37.0C103.1 36.1 103.1 35.9 103.0 34.9C102.9 34.1 102.9 33.8 102.5 32.9C102.3 32.6 102.1 31.9 102.0 31.5C101.9 31.1 101.7 30.4 101.5 30.0C101.3 29.6 101.1 28.9 101.0 28.5C100.9 28.1 100.7 27.4 100.5 27.0C100.3 26.6 100.1 25.9 100.0 25.5C99.9 25.1 99.7 24.4 99.5 24.0C99.3 23.6 99.1 22.9 99.0 22.5C98.9 22.1 98.7 21.4 98.5 21.0C98.3 20.6 98.1 19.9 98.0 19.5C97.9 19.1 97.7 18.4 97.5 18.0C97.3 17.6 97.1 16.9 97.0 16.5C96.9 15.9 96.8 15.6 96.3 14.6C96.2 14.4 96.0 13.8 95.9 13.4C95.7 12.6 95.5 12.2 95.2 11.8C94.5 11.2 94.2 11.6 94.1 13.5C94.0 14.8 93.9 15.1 93.5 16.1C93.2 16.8 93.1 17.1 93.0 17.9C92.9 18.9 92.9 19.1 92.5 20.0C92.3 20.4 92.1 21.1 92.0 21.5C91.8 22.3 91.7 22.6 90.9 24.2C90.1 25.8 90.1 25.9 90.0 26.9C89.9 27.9 89.9 28.1 89.5 29.0C89.3 29.4 89.1 30.1 89.0 30.5C88.9 30.9 88.7 31.6 88.5 31.9C88.1 32.8 88.1 33.1 88.0 33.9C87.9 34.9 87.9 35.1 87.5 36.0C87.3 36.4 87.1 37.1 87.0 37.5C86.9 37.9 86.7 38.6 86.5 39.0C86.3 39.4 86.1 40.1 86.0 40.5C85.9 40.9 85.7 41.6 85.5 42.0C85.3 42.4 85.1 43.1 85.0 43.5C84.9 43.9 84.7 44.6 84.5 45.0C84.3 45.4 84.1 46.1 84.0 46.5C83.9 46.9 83.7 47.4 83.6 47.7C83.1 49.0 83.4 49.7 84.5 49.9C85.2 50.1 105.4 50.0 105.9 49.9ZM368.7 49.9C369.6 49.6 369.8 48.9 369.4 47.7C369.3 47.4 369.1 46.9 369.0 46.5C368.9 46.1 368.7 45.4 368.5 45.0C368.3 44.6 368.1 43.9 368.0 43.5C367.9 43.1 367.7 42.4 367.5 42.0C367.3 41.6 367.1 40.9 367.0 40.5C366.9 40.1 366.7 39.4 366.5 39.0C366.3 38.6 366.1 37.9 366.0 37.5C365.9 37.1 365.7 36.4 365.5 36.0C365.3 35.6 365.1 34.9 365.0 34.5C364.9 34.1 364.7 33.4 364.5 33.0C364.3 32.6 364.1 31.9 364.0 31.5C363.9 31.1 363.7 30.4 363.5 30.0C363.3 29.6 363.1 28.9 363.0 28.5C362.9 28.1 362.7 27.4 362.5 27.0C362.1 26.1 362.1 25.9 362.0 24.9C361.9 24.1 361.9 23.8 361.5 22.9C361.3 22.6 361.1 21.9 361.0 21.5C360.9 21.1 360.7 20.4 360.5 20.0C360.3 19.6 360.1 18.9 360.0 18.5C359.9 18.0 359.7 17.4 359.5 17.0C359.1 16.1 359.1 15.9 359.0 15.0C358.9 13.8 358.5 13.0 358.0 12.5C357.5 12.1 357.5 12.2 356.8 13.5C356.1 14.7 356.1 15.0 356.0 16.4C355.9 17.8 355.9 18.0 355.5 19.0C355.3 19.4 355.1 20.1 355.0 20.5C354.9 20.9 354.7 21.6 354.5 22.0C354.3 22.4 354.1 23.1 354.0 23.5C353.9 23.9 353.7 24.6 353.5 24.9C353.1 25.8 353.1 26.1 353.0 26.9C352.9 27.9 352.9 28.1 352.5 29.0C352.3 29.4 352.1 30.1 352.0 30.5C351.9 30.9 351.7 31.6 351.5 32.0C351.3 32.4 351.1 33.1 351.0 33.5C350.9 33.9 350.7 34.6 350.5 35.0C350.3 35.4 350.1 36.1 350.0 36.5C349.9 36.9 349.7 37.6 349.5 38.0C349.3 38.4 349.1 39.1 349.0 39.5C348.9 39.9 348.7 40.6 348.5 41.0C348.3 41.4 348.1 42.1 348.0 42.5C347.9 42.9 347.7 43.6 347.5 44.0C347.3 44.4 347.1 45.1 347.0 45.5C346.9 45.9 346.7 46.6 346.5 46.9C346.2 47.8 346.1 47.9 346.1 48.4C346.1 49.3 346.5 49.7 347.4 49.9C347.9 50.0 368.4 50.0 368.7 49.9ZM33.8 34.9C34.0 34.9 34.5 34.7 34.9 34.5C35.3 34.4 36.0 34.2 36.4 34.0C38.1 33.6 39.8 32.7 40.4 31.9C40.8 31.5 42.6 27.8 42.8 27.2C43.0 26.7 43.0 26.7 43.0 23.5C43.0 19.6 43.1 20.3 41.3 16.7C39.6 13.1 39.8 13.4 37.2 12.1C34.8 10.9 35.5 11.0 30.6 11.0C25.9 11.0 26.1 11.0 25.0 10.5C23.9 10.0 24.4 10.0 17.6 10.0C10.7 10.0 11.1 10.0 10.5 10.5C10.0 11.1 10.0 10.0 10.0 22.5C10.0 32.9 10.0 33.6 10.1 33.8C10.4 34.4 10.7 34.8 11.4 34.9C12.0 35.0 33.1 35.0 33.8 34.9ZM170.8 34.9C171.0 34.9 171.5 34.7 171.9 34.5C172.3 34.4 173.0 34.2 173.4 34.0C175.1 33.6 176.8 32.7 177.4 31.9C177.8 31.5 179.6 27.8 179.8 27.2C180.0 26.7 180.0 26.7 180.0 23.5C180.0 19.6 180.1 20.3 178.3 16.7C176.6 13.1 176.8 13.4 174.2 12.1C171.8 10.9 172.5 11.0 167.6 11.0C162.9 11.0 163.1 11.0 162.0 10.5C160.9 10.0 161.4 10.0 154.6 10.0C147.7 10.0 148.1 10.0 147.5 10.5C147.0 11.1 147.0 10.0 147.0 22.5C147.0 32.9 147.0 33.6 147.1 33.8C147.4 34.4 147.7 34.8 148.4 34.9C149.0 35.0 170.1 35.0 170.8 34.9Z" fill="url(#bl-word)"/>
</svg>
